<svg xmlns="http://www.w3.org/2000/svg" viewBox="0 0 32 32" width="32" height="32">
  <!-- Background -->
  <defs>
    <linearGradient id="bgGradient" x1="0%" y1="0%" x2="100%" y2="100%">
      <stop offset="0%" style="stop-color:#1e40af;stop-opacity:1" />
      <stop offset="100%" style="stop-color:#3b82f6;stop-opacity:1" />
    </linearGradient>
    <linearGradient id="waveGradient" x1="0%" y1="0%" x2="100%" y2="0%">
      <stop offset="0%" style="stop-color:#ffffff;stop-opacity:0.9" />
      <stop offset="50%" style="stop-color:#ffffff;stop-opacity:0.6" />
      <stop offset="100%" style="stop-color:#ffffff;stop-opacity:0.3" />
    </linearGradient>
  </defs>
  
  <!-- Background circle -->
  <circle cx="16" cy="16" r="15" fill="url(#bgGradient)" stroke="#1e3a8a" stroke-width="1"/>
  
  <!-- Ultrasound transducer (probe) -->
  <ellipse cx="16" cy="8" rx="6" ry="2" fill="#374151" stroke="#1f2937" stroke-width="0.5"/>
  <rect x="14" y="6" width="4" height="2" fill="#6b7280" rx="0.5"/>
  
  <!-- Ultrasound waves emanating from transducer -->
  <g stroke="url(#waveGradient)" stroke-width="1.5" fill="none" opacity="0.8">
    <!-- Wave 1 -->
    <path d="M 10 10 Q 16 16 22 10" />
    <!-- Wave 2 -->
    <path d="M 8 12 Q 16 18 24 12" />
    <!-- Wave 3 -->
    <path d="M 6 14 Q 16 20 26 14" />
  </g>
  
  <!-- Ultrasound scan lines -->
  <g stroke="white" stroke-width="0.8" opacity="0.6">
    <line x1="12" y1="12" x2="12" y2="24" />
    <line x1="16" y1="12" x2="16" y2="24" />
    <line x1="20" y1="12" x2="20" y2="24" />
  </g>
  
  <!-- Echo points (representing tissue boundaries) -->
  <circle cx="12" cy="16" r="1" fill="white" opacity="0.9"/>
  <circle cx="16" cy="18" r="1.2" fill="white" opacity="0.8"/>
  <circle cx="20" cy="20" r="0.8" fill="white" opacity="0.7"/>
  <circle cx="14" cy="22" r="1" fill="white" opacity="0.6"/>
  <circle cx="18" cy="24" r="0.6" fill="white" opacity="0.5"/>
  
  <!-- Medical cross symbol -->
  <rect x="15" y="26" width="2" height="4" fill="white" rx="0.5"/>
  <rect x="13" y="28" width="6" height="2" fill="white" rx="0.5"/>
</svg> 